<svg width="81" height="131" viewBox="0 0 81 131" fill="none" xmlns="http://www.w3.org/2000/svg">
<ellipse cx="7.33944" cy="6.30887" rx="7.33944" ry="6.30887" transform="matrix(-1 0 0 1 47.4365 26.6353)" fill="black"/>
<rect width="22.9357" height="31.5444" rx="11.4679" transform="matrix(-1 0 0 1 51.4119 40.8302)" fill="black"/>
<path d="M24.0418 33.2071L33.0632 40.9617V47.5335L16.3966 33.2071L34.4393 17.6978L38.262 20.9836L24.0418 33.2071Z" fill="black"/>
<path d="M58.8046 82.4319L49.8462 90.2207V96.8214L66.3963 82.4319L48.4797 66.8542L44.6838 70.1546L58.8046 82.4319Z" fill="black"/>
<path d="M57.9867 32.0241L47.3999 41.0641V47.6648L63.95 33.2753L59.6687 6L54.1641 7.84009L57.9867 32.0241Z" fill="black"/>
<path d="M32.9934 92.6062L41.0002 125.646H36.8782L26.933 93.8614L31.284 66.5L36.8782 68.3459L32.9934 92.6062Z" fill="black"/>
<rect width="4.89296" height="7.09748" transform="matrix(-1 0 0 1 42.5435 37.15)" fill="black"/>
</svg>
