<svg width="81" height="131" viewBox="0 0 81 131" fill="none" xmlns="http://www.w3.org/2000/svg">
<ellipse cx="41.9032" cy="32.4441" rx="7.33945" ry="6.30887" fill="black"/>
<rect x="30.5884" y="40.3302" width="22.9358" height="31.5444" rx="11.4679" fill="black"/>
<path d="M57.9585 32.7071L48.9371 40.4617V47.0335L65.6037 32.7071L47.5609 17.1978L43.7383 20.4836L57.9585 32.7071Z" fill="black"/>
<path d="M23.1954 81.9319L32.1537 89.7207V96.3214L15.6036 81.9319L33.5203 66.3542L37.3162 69.6546L23.1954 81.9319Z" fill="black"/>
<path d="M24.0133 31.5241L34.6001 40.5641V47.1648L18.05 32.7753L22.3313 5.5L27.8359 7.34009L24.0133 31.5241Z" fill="black"/>
<path d="M49.0069 92.1062L41 125.146H45.122L55.0673 93.3614L50.7162 66L45.122 67.8459L49.0069 92.1062Z" fill="black"/>
<rect x="39.4568" y="36.65" width="4.89297" height="7.09748" fill="black"/>
</svg>
