<svg width="81" height="134" viewBox="0 0 81 134" fill="none" xmlns="http://www.w3.org/2000/svg">
<g id="climb=1" filter="url(#filter0_d_53_11553)">
<g id="person">
<g id="leftLimbs">

<path id="Vector 1" d="M57.9585 32.7071L48.9371 40.4617V47.0335L65.6037 32.7071L47.5609 17.1978L43.7383 20.4836L57.9585 32.7071Z" fill="black"/>
<path id="Vector 2" d="M23.1954 81.9319L32.1537 89.7207V96.3214L15.6036 81.9319L33.5203 66.3542L37.3162 69.6546L23.1954 81.9319Z" fill="black"/>
<path id="Vector 3" d="M24.0133 31.5241L34.6001 40.5641V47.1648L18.05 32.7753L22.3313 5.5L27.8359 7.34009L24.0133 31.5241Z" fill="black"/>
<path id="Vector 4" d="M49.0069 92.1062L41 125.146H45.122L55.0673 93.3614L50.7162 66L45.122 67.8459L49.0069 92.1062Z" fill="black"/>
</g>
<g id="body">
<ellipse id="Ellipse 1" cx="41.9032" cy="32.4441" rx="7.33945" ry="6.30887" fill="black"/>
<rect id="Rectangle 8" x="30.5884" y="40.3302" width="22.9358" height="31.5444" rx="11.4679" fill="black"/>
<rect id="Rectangle 9" x="39.4568" y="36.65" width="4.89297" height="7.09748" fill="black"/>
</g>
</g>
</g>
<defs>
<filter id="filter0_d_53_11553" x="-4" y="0" width="89" height="139" filterUnits="userSpaceOnUse" color-interpolation-filters="sRGB">
<feFlood flood-opacity="0" result="BackgroundImageFix"/>
<feColorMatrix in="SourceAlpha" type="matrix" values="0 0 0 0 0 0 0 0 0 0 0 0 0 0 0 0 0 0 127 0" result="hardAlpha"/>
<feOffset dy="4"/>
<feGaussianBlur stdDeviation="2"/>
<feComposite in2="hardAlpha" operator="out"/>
<feColorMatrix type="matrix" values="0 0 0 0 0 0 0 0 0 0 0 0 0 0 0 0 0 0 0.25 0"/>
<feBlend mode="normal" in2="BackgroundImageFix" result="effect1_dropShadow_53_11553"/>
<feBlend mode="normal" in="SourceGraphic" in2="effect1_dropShadow_53_11553" result="shape"/>
</filter>
</defs>
</svg>
